<svg xmlns="http://www.w3.org/2000/svg" viewBox="0 0 48 48"><defs><style>.cls-1{fill:#42a5f5}.cls-2{fill:#424242}</style></defs><g id="SEO_Script" data-name="SEO Script"><path class="cls-1" d="M32 0H16a2 2 0 0 0-2 2v10a2 2 0 0 0 2 2h2v4l5-4h9a2 2 0 0 0 2-2V2a2 2 0 0 0-2-2zM20.71 8.29A1 1 0 0 1 20 10c-.54 0-.57-.15-2.71-2.29a1 1 0 0 1 0-1.42l2-2a1 1 0 0 1 1.42 1.42L19.41 7zm5.24-4-2 6a1 1 0 0 1-1.9-.64l2-6a1 1 0 0 1 1.95.67zm4.76 3.39C28.53 9.89 28.54 10 28 10a1 1 0 0 1-.71-1.71L28.59 7l-1.3-1.29a1 1 0 0 1 1.42-1.42l2 2a1 1 0 0 1 0 1.42z"/><path class="cls-2" d="M21 26H11a1 1 0 0 1 0-2h10a1 1 0 0 1 0 2zM16 30h-5a1 1 0 0 1 0-2h5a1 1 0 0 1 0 2zM22 22h-5a1 1 0 0 1 0-2h5a1 1 0 0 1 0 2zM16 34h-5a1 1 0 0 1 0-2h5a1 1 0 0 1 0 2zM31 30h-5a1 1 0 0 1 0-2h5a1 1 0 0 1 0 2zM27 26h-2a1 1 0 0 1 0-2h2a1 1 0 0 1 0 2zM13 22h-2a1 1 0 0 1 0-2h2a1 1 0 0 1 0 2zM30 34H20a1 1 0 0 1 0-2h10a1 1 0 0 1 0 2zM36 22H26a1 1 0 0 1 0-2h10a1 1 0 0 1 0 2zM36 34h-2a1 1 0 0 1 0-2h2a1 1 0 0 1 0 2zM22 30h-2a1 1 0 0 1 0-2h2a1 1 0 0 1 0 2zM19 41v-1h10v1a1 1 0 0 1-1 1h-8a1 1 0 0 1-1-1z"/><path class="cls-1" d="M48 40v5a3 3 0 0 1-3 3H3a3 3 0 0 1-3-3v-5h17v1a3 3 0 0 0 3 3h8a3 3 0 0 0 3-3v-1z"/><path class="cls-2" d="M5 4h7v2H5a1 1 0 0 0-1 1v31H2V7a3 3 0 0 1 3-3zM46 7v31h-2V7a1 1 0 0 0-1-1h-7V4h7a3 3 0 0 1 3 3z"/><path class="cls-2" d="M41 8h-5v2h4v26H8V10h4V8H7a1 1 0 0 0-1 1v28a1 1 0 0 0 1 1h34a1 1 0 0 0 1-1V9a1 1 0 0 0-1-1z"/></g></svg>